<?xml version="1.0" encoding="utf-8"?>
<!-- Generator: Adobe Illustrator 16.0.2, SVG Export Plug-In . SVG Version: 6.00 Build 0)  -->
<!DOCTYPE svg PUBLIC "-//W3C//DTD SVG 1.1//EN" "http://www.w3.org/Graphics/SVG/1.1/DTD/svg11.dtd">
<svg version="1.1" id="Layer_1" xmlns="http://www.w3.org/2000/svg" xmlns:xlink="http://www.w3.org/1999/xlink" x="0px" y="0px"
	 width="200px" height="80px" viewBox="0 0 200 80" enable-background="new 0 0 200 80" xml:space="preserve">
<path fill="#FAA21B" d="M24.661,20.774v40.583H9.926V20.774H24.661z"/>
<path fill="#FAA21B" d="M108.124,61.357H93.389V38.893c0-3.162-0.117-5.217-0.346-6.167c-0.23-0.952-0.832-1.743-1.804-2.373
	c-0.973-0.628-2.316-0.944-4.03-0.944c-1.616,0-3.263,0.469-4.943,1.407c-1.682,0.938-2.521,3.631-2.521,8.077v22.464H65.01V38.893
	c0-3.241-0.182-5.337-0.543-6.288c-0.364-0.95-1.046-1.72-2.053-2.311c-1.005-0.588-2.282-0.883-3.832-0.883
	c-2.538,0-4.425,0.65-5.661,1.949c-1.235,1.298-1.854,3.809-1.854,7.532v22.463h-14.29V20.773h13.844v6.188
	c2.344-4.686,7.032-7.03,14.064-7.03c6.373,0,10.979,2.344,13.819,7.03c2.77-4.686,7.6-7.03,14.488-7.03
	c3.298,0,6.134,0.55,8.506,1.647c2.374,1.098,4.068,2.53,5.092,4.299c1.025,1.768,1.535,4.809,1.535,9.12L108.124,61.357
	L108.124,61.357z"/>
<path fill="#FAA21B" d="M120.241,61.357V5.384h14.735v55.974H120.241z"/>
<path fill="#FAA21B" d="M167.376,19.928c7.479,0,13.313,1.989,17.501,5.963c4.191,3.976,6.287,8.951,6.287,14.925
	c0,5.899-2.178,10.819-6.527,14.756c-4.354,3.936-10.14,5.9-17.354,5.9c-6.986,0-12.584-1.947-16.771-5.845
	c-4.191-3.896-6.291-8.896-6.291-15.012c0-4.235,0.95-7.836,2.842-10.796c1.894-2.962,4.492-5.351,7.793-7.167
	C158.152,20.838,162.327,19.928,167.376,19.928z M167.768,27.63c-2.748,0-4.816,0.862-6.207,2.587
	c-1.386,1.724-2.084,5.151-2.084,10.287c0,4.717,0.664,8.096,1.987,10.148c1.325,2.051,3.392,3.082,6.203,3.082
	c2.456,0,4.438-0.879,5.961-2.629c1.517-1.75,2.276-5.088,2.276-10.015c0-5.237-0.67-8.792-2.012-10.662
	C172.555,28.565,170.509,27.63,167.768,27.63z"/>
<polygon fill="#939393" points="10.163,64.271 17.294,76.622 24.424,64.271 "/>
<path fill="#F05A2B" d="M9.926,5.384c2.45-2.704,12.134-2.648,14.735,0c2.601,2.647,0,11.972,0,11.972H9.926
	C9.926,17.356,7.475,8.087,9.926,5.384z"/>
<rect x="17.294" y="64.271" fill="#939393" width="173.868" height="1.08"/>
</svg>
